<?xml version="1.0" encoding="UTF-8" standalone="no"?>
<!-- Generator: Adobe Illustrator 16.0.4, SVG Export Plug-In . SVG Version: 6.00 Build 0)  -->

<svg
   version="1.1"
   id="Layer_1"
   x="0px"
   y="0px"
   width="102.61862"
   height="70.862999"
   viewBox="0 0 102.61862 70.86299"
   enable-background="new 0 0 841.89 595.28"
   xml:space="preserve"
   sodipodi:docname="ap_logo.svg"
   inkscape:version="1.2.1 (9c6d41e410, 2022-07-14)"
   inkscape:export-filename="ap_logo.png"
   inkscape:export-xdpi="96"
   inkscape:export-ydpi="96"
   xmlns:inkscape="http://www.inkscape.org/namespaces/inkscape"
   xmlns:sodipodi="http://sodipodi.sourceforge.net/DTD/sodipodi-0.dtd"
   xmlns="http://www.w3.org/2000/svg"
   xmlns:svg="http://www.w3.org/2000/svg"><sodipodi:namedview
   id="namedview330"
   pagecolor="#ffffff"
   bordercolor="#666666"
   borderopacity="1.0"
   inkscape:showpageshadow="2"
   inkscape:pageopacity="0.0"
   inkscape:pagecheckerboard="0"
   inkscape:deskcolor="#d1d1d1"
   showgrid="true"
   inkscape:zoom="3.2483563"
   inkscape:cx="-11.852148"
   inkscape:cy="60.492132"
   inkscape:window-width="1920"
   inkscape:window-height="985"
   inkscape:window-x="0"
   inkscape:window-y="0"
   inkscape:window-maximized="1"
   inkscape:current-layer="layer1"><inkscape:grid
     type="xygrid"
     id="grid503"
     originx="-170.31959"
     originy="7.1048391" /></sodipodi:namedview><defs
   id="defs125">
	

		
        
        
        
        
        
	</defs>
    <polygon
   fill="#FFFFFF"
   points="265.054,282.547 265.271,282.547 289.431,331.083 309.277,331.083 273.144,260.22 257.829,260.22 221.696,331.083 241.11,331.083 246.963,319.219 276.056,319.219 268.83,304.334 254.307,304.334 "
   id="polygon110"
   style="fill:#FFFFFF;fill-opacity:1;stroke:none;stroke-opacity:1"
   transform="translate(-221.696,-260.22)" />
    <g
   inkscape:groupmode="layer"
   id="layer1"
   inkscape:label="Layer 1"
   transform="translate(-170.3196,7.10484)"><path
     fill="#FFFFFF"
     d="m 272.64367,18.046173 c 0,-7.942154 -5.21052,-13.9785912 -15.94851,-13.9785912 H 235.09194 V 45.81249 H 245.2585 V 13.089543 h 11.50028 c 4.25737,0 5.78136,2.415282 5.78136,5.210529 0,2.859459 -1.5882,5.210529 -5.84557,5.210529 h -9.84846 l -0.0145,8.15827 c 4.11994,0.117187 4.72612,0.240261 16.09025,-0.851747 5.90978,-1.397329 9.7218,-5.527461 9.7218,-12.770951"
     id="path106"
     style="fill:#173395;fill-opacity:1;stroke:#f6f6f6;stroke-width:0.589093;stroke-opacity:1"
     sodipodi:nodetypes="csccccssscccc" /></g><g
   inkscape:groupmode="layer"
   id="layer2"
   inkscape:label="Layer 2"
   transform="translate(-170.3196,7.10484)" /></svg>
